<?xml version="1.0"?>
<svg xmlns="http://www.w3.org/2000/svg" viewBox="0 0 64 64" width="512" height="512"><g id="house-home-3" data-name="house-home"><path d="M60.58,34.91A1.023,1.023,0,0,0,61,35a.949.949,0,0,0,.54-.16A.985.985,0,0,0,62,34V30a1.016,1.016,0,0,0-.58-.91l-13-6A1.023,1.023,0,0,0,48,23H23a1,1,0,0,0-1,1v4a1,1,0,0,0,1,1h2v1H3a1,1,0,0,0-1,1v4a1,1,0,0,0,1,1V56a1,1,0,0,0-1,1v4a1,1,0,0,0,1,1H61a1,1,0,0,0,1-1V57a1,1,0,0,0-1-1H58V33.72ZM4,32H25v2H4ZM15,44a5,5,0,0,0-5,5v7H5V36H25V56H20V49A5,5,0,0,0,15,44Zm3,5v7H12V49a3,3,0,0,1,6,0Zm42,9v2H4V58ZM27,56V29H47.78L56,32.79V56ZM48.42,27.09A1.023,1.023,0,0,0,48,27H24V25H47.78L60,30.64v1.8Z" fill="#61cf8d"/><path d="M39,43V39a4,4,0,0,0-8,0v4H30v2H40V43Zm-2,0H33V39a2,2,0,0,1,4,0Z" fill="#61cf8d"/><path d="M52,43V39a4,4,0,0,0-8,0v4H43v2H53V43Zm-2,0H46V39a2,2,0,0,1,4,0Z" fill="#61cf8d"/><path d="M9,20a3.944,3.944,0,0,0,2.541-.919,7.1,7.1,0,0,0,7.294-.23A4.948,4.948,0,0,0,22,20a5,5,0,1,0-.65-9.952A7,7,0,0,0,8.056,12.112,4,4,0,0,0,9,20Zm0-6a1,1,0,0,0,1-1,5,5,0,0,1,9.777-1.479,1,1,0,0,0,1.274.651A2.995,2.995,0,1,1,19.7,16.9a1,1,0,0,0-.689-.361.769.769,0,0,0-.083,0,1,1,0,0,0-.655.244A5.072,5.072,0,0,1,12,16.99a1,1,0,0,0-1.4.2A2,2,0,1,1,9,14Z" fill="#61cf8d"/><rect x="52" y="51" width="2" height="2" fill="#61cf8d"/><rect x="48" y="53" width="2" height="2" fill="#61cf8d"/><rect x="13" y="51" width="2" height="2" fill="#61cf8d"/><path d="M45,15H57a5,5,0,1,0-1.67-9.712A5.981,5.981,0,0,0,44.8,5,5,5,0,0,0,45,15Zm0-8a.912.912,0,0,1,.128.015l.178.02a.992.992,0,0,0,1.014-.6,3.984,3.984,0,0,1,7.513.5,1,1,0,0,0,1.516.565A3,3,0,1,1,57,13H45a3,3,0,0,1,0-6Z" fill="#61cf8d"/></g></svg>
